<svg xmlns="http://www.w3.org/2000/svg" version="1.0" preserveAspectRatio="xMidYMid meet" viewBox="31.5 126.28 449.5 259.22">

<g transform="translate(0.000000,512.000000) scale(0.100000,-0.100000)" fill="#000000" stroke="none">
<path d="M550 3848 c-47 -13 -136 -74 -165 -112 -13 -18 -35 -54 -47 -82 l-23 -49 0 -950 0 -950 22 -36 c13 -20 42 -49 65 -65 l41 -29 295 -5 296 -5 6 -25 c25 -93 114 -196 208 -242 62 -31 73 -33 172 -33 97 0 110 2 172 32 86 41 148 105 194 199 l35 74 967 0 968 0 28 -66 c39 -89 111 -165 194 -206 62 -31 73 -33 172 -33 93 0 112 3 162 27 97 45 195 153 219 240 l10 38 55 0 c93 0 160 39 195 115 17 37 19 73 19 443 0 381 -1 405 -20 441 -25 50 -749 868 -797 901 l-36 25 -366 5 -366 5 -7 58 c-15 116 -83 214 -187 264 l-56 28 -1195 2 c-771 1 -1207 -2 -1230 -9z m2407 -149 c38 -14 83 -57 99 -96 11 -26 14 -144 14 -623 l0 -590 -1305 0 -1305 0 0 588 c0 548 2 590 19 627 20 43 40 64 86 88 27 15 152 16 1197 17 801 0 1176 -3 1195 -11z m1006 -405 c84 -90 92 -84 -110 -84 -151 0 -184 -3 -218 -19 -95 -44 -105 -77 -105 -358 0 -264 7 -291 81 -340 l43 -28 503 -3 503 -3 0 -357 c0 -265 -3 -361 -12 -370 -7 -7 -31 -12 -54 -12 -42 0 -42 0 -59 53 -36 112 -118 205 -225 256 -48 23 -68 26 -160 26 -93 0 -111 -3 -163 -27 -105 -49 -205 -171 -227 -273 l-6 -30 -267 -3 -267 -2 0 815 0 815 345 0 346 0 52 -56z m402 -453 c107 -121 195 -222 195 -225 0 -4 -197 -5 -437 -4 l-438 3 -3 210 c-1 115 0 215 2 222 4 10 60 13 245 13 l240 0 196 -219z m-1295 -861 l0 -260 -625 0 -625 0 -5 28 c-21 103 -126 230 -232 280 -52 24 -70 27 -163 27 -94 0 -111 -3 -161 -28 -108 -53 -182 -137 -221 -252 l-17 -50 -264 -3 c-231 -2 -267 0 -281 14 -14 13 -16 50 -16 260 l0 244 1305 0 1305 0 0 -260z m-1555 -84 c140 -59 198 -213 132 -349 -45 -90 -123 -137 -229 -137 -226 0 -332 280 -167 437 19 18 50 39 69 47 45 19 151 20 195 2z m2733 -1 c49 -21 110 -80 133 -130 25 -53 25 -156 0 -210 -21 -46 -88 -111 -137 -131 -43 -18 -145 -18 -188 0 -49 20 -112 81 -135 130 -25 50 -28 149 -7 200 20 49 85 116 131 137 50 23 152 25 203 4z"/>
</g>
</svg>