<svg xmlns="http://www.w3.org/2000/svg" version="1.0" preserveAspectRatio="xMidYMid meet" viewBox="253 226.49 1576.99 935.34">

<g transform="translate(0.000000,1389.000000) scale(0.100000,-0.100000)" fill="#000000" stroke="none">
<path d="M11413 11616 c-71 -32 -94 -144 -75 -371 11 -138 29 -184 89 -234 60 -50 134 -73 250 -79 96 -4 106 -3 155 22 53 26 95 61 155 130 25 27 44 39 79 45 43 8 46 7 56 -18 18 -48 68 -184 122 -336 l54 -151 16 -338 c9 -187 15 -341 13 -342 -2 -2 -105 -20 -230 -39 -124 -19 -237 -39 -250 -44 -14 -6 -37 -25 -51 -44 -63 -83 -1 -207 104 -207 19 0 163 20 319 45 l283 45 417 -208 416 -207 93 -170 c52 -93 104 -194 118 -223 l23 -53 -52 -23 c-90 -40 -485 -196 -496 -196 -5 0 -60 53 -122 119 l-112 118 -51 -13 c-28 -8 -53 -14 -56 -14 -3 0 -30 19 -60 41 -125 94 -291 156 -512 191 -208 33 -641 33 -943 0 -433 -48 -991 -175 -1255 -286 -203 -86 -403 -248 -531 -430 -68 -96 -89 -131 -89 -149 0 -10 23 -39 51 -65 88 -81 137 -211 125 -331 -11 -100 -58 -233 -122 -338 -46 -77 -58 -106 -62 -149 -4 -51 -3 -53 29 -73 32 -20 49 -21 339 -21 629 -1 1076 -28 1220 -74 77 -25 221 -46 460 -68 187 -17 949 -17 1095 0 260 31 447 80 549 146 119 76 280 265 376 443 19 34 35 61 37 60 1 -2 -47 -122 -106 -267 -60 -146 -146 -355 -191 -465 -171 -417 -288 -696 -294 -703 -2 -1 -26 6 -53 17 -44 17 -187 58 -265 75 l-28 6 0 248 c0 230 -1 249 -20 280 -39 63 -25 62 -712 62 -600 0 -624 -1 -655 -20 -70 -42 -68 -29 -71 -486 -3 -458 -2 -466 60 -504 32 -19 49 -20 671 -20 705 0 679 -2 711 64 9 19 16 39 16 45 0 14 2 14 73 -4 74 -17 157 -47 157 -56 0 -3 -32 -82 -70 -175 -39 -93 -98 -236 -132 -319 -33 -82 -111 -271 -172 -420 l-111 -270 -5 91 c-6 102 -19 132 -73 158 -31 14 -90 16 -524 16 -457 0 -491 1 -523 19 -71 37 -74 54 -80 351 -5 288 -7 296 -63 330 -30 19 -53 20 -355 20 -358 0 -349 1 -413 -67 -19 -21 -90 -81 -156 -133 l-122 -95 -3 -120 -3 -120 -45 -6 c-330 -49 -558 -92 -580 -108 -47 -34 -50 -50 -50 -318 l0 -251 25 -31 c14 -16 34 -32 43 -35 9 -3 205 -37 434 -76 l417 -70 923 0 923 -1 -61 -57 c-79 -73 -186 -134 -299 -169 l-90 -28 -1510 -3 -1510 -3 -120 32 c-128 34 -533 147 -550 153 -8 3 -8 35 -2 102 4 54 10 100 12 102 5 5 515 39 789 52 229 12 267 19 315 63 74 68 65 218 -16 275 -61 42 -68 42 -545 12 -249 -16 -478 -31 -509 -34 l-57 -5 -12 67 c-57 322 -182 642 -347 892 -233 352 -537 619 -920 806 -268 131 -524 199 -848 225 -236 18 -580 -17 -798 -82 -542 -163 -1003 -515 -1307 -998 -77 -122 -139 -241 -163 -311 -9 -25 -31 -89 -51 -142 -83 -229 -116 -410 -123 -689 -6 -237 3 -353 43 -539 111 -519 376 -956 783 -1296 132 -111 336 -240 501 -318 121 -57 331 -129 452 -154 342 -73 779 -66 1094 18 556 148 1040 504 1356 996 62 97 190 352 203 407 4 15 11 27 15 27 5 0 69 -11 142 -24 73 -14 275 -50 448 -81 173 -31 500 -90 725 -132 226 -41 437 -79 471 -86 48 -8 270 -3 1045 27 1381 52 1362 51 1440 76 162 50 254 127 502 422 52 62 132 154 177 203 45 50 98 110 118 135 57 71 196 234 208 245 29 26 206 249 254 320 65 95 123 227 152 344 30 119 30 322 0 433 -71 264 -176 402 -430 563 -1 1 44 114 101 251 57 137 113 274 124 304 11 30 60 150 108 265 190 456 217 522 241 585 14 36 31 78 38 95 l13 29 57 -111 c63 -124 95 -158 156 -168 36 -6 54 -1 143 40 183 84 209 96 212 93 15 -18 65 -108 122 -218 119 -232 337 -630 359 -659 2 -2 20 6 40 18 20 12 38 21 39 19 2 -2 25 -44 53 -95 l50 -92 -42 -27 c-223 -146 -453 -366 -620 -594 -52 -71 -175 -274 -200 -330 -287 -657 -302 -1279 -45 -1897 148 -355 385 -665 699 -914 97 -77 184 -139 195 -139 3 0 22 -11 43 -24 71 -45 297 -154 382 -184 306 -110 549 -149 863 -139 259 8 431 39 669 118 109 37 286 116 378 169 36 21 83 48 105 60 77 43 270 195 373 295 339 325 563 739 662 1215 64 311 50 712 -35 1025 -60 222 -183 495 -302 675 -130 195 -372 456 -513 553 -19 13 -76 53 -126 88 -138 99 -442 249 -562 278 -20 5 -89 23 -152 39 -205 54 -310 67 -565 67 -259 0 -359 -12 -585 -71 -148 -39 -220 -62 -319 -104 l-65 -28 -52 92 -52 91 39 19 c22 11 39 25 39 30 0 6 -31 67 -68 136 -94 172 -264 487 -389 720 -58 107 -109 199 -113 203 -4 5 -26 -1 -48 -12 l-40 -21 -31 55 c-17 30 -31 57 -31 61 0 3 -29 58 -64 122 -235 432 -297 545 -329 609 -20 39 -60 114 -88 165 -28 51 -94 172 -146 268 -141 258 -129 244 -268 315 l-120 60 -40 182 c-22 100 -43 184 -47 188 -3 3 -78 1 -165 -6 l-160 -12 5 -74 c3 -40 2 -73 -1 -73 -3 0 -74 34 -158 75 -115 57 -161 75 -193 75 l-42 0 -27 148 c-44 237 -66 360 -81 467 -17 113 -26 142 -91 290 -25 58 -58 158 -74 223 -15 64 -33 127 -39 139 -13 24 -74 49 -145 58 -44 6 -56 14 -132 89 -171 172 -379 273 -472 232z m4745 -5466 c271 -30 549 -135 745 -281 96 -72 238 -205 302 -283 107 -131 221 -348 274 -521 51 -169 65 -263 65 -445 0 -193 -18 -312 -70 -470 -183 -552 -643 -954 -1209 -1056 -147 -27 -405 -24 -543 5 -334 71 -599 215 -827 452 -162 168 -280 364 -354 584 -108 325 -103 679 15 1005 59 167 181 374 287 489 111 121 302 281 317 265 7 -8 42 -69 165 -295 l42 -77 -71 -58 c-265 -221 -411 -556 -393 -903 18 -341 178 -636 457 -840 313 -229 729 -274 1088 -118 143 62 330 204 420 319 61 78 155 253 188 350 75 226 72 484 -10 713 -57 159 -135 283 -251 400 -165 167 -325 258 -535 306 -187 43 -459 30 -615 -28 -36 -13 -40 -13 -53 4 -33 45 -192 350 -192 369 0 2 48 19 108 38 231 75 437 99 650 76z m-10293 -84 c139 -29 220 -58 360 -128 170 -85 383 -254 497 -395 68 -84 164 -241 217 -354 41 -86 111 -311 111 -353 0 -25 8 -24 -316 -42 l-121 -7 -7 39 c-10 52 -71 208 -103 264 -96 165 -219 299 -360 393 -286 190 -633 237 -953 131 -130 -44 -230 -96 -334 -178 -83 -65 -179 -160 -210 -208 -10 -16 -24 -28 -32 -28 -7 0 -92 23 -188 50 -96 28 -183 50 -193 50 -43 1 -47 16 -19 64 100 172 277 355 461 478 177 119 343 188 545 227 153 30 149 30 345 26 144 -3 204 -9 300 -29z m7060 -212 c79 -80 122 -204 132 -374 6 -111 -11 -243 -39 -310 -13 -31 -98 -147 -204 -280 -20 -25 -97 -116 -172 -203 -76 -87 -171 -197 -212 -245 -121 -141 -531 -547 -582 -576 -32 -18 -71 -30 -125 -36 -143 -17 -960 -32 -1538 -28 -646 5 -621 2 -934 91 l-185 52 1230 5 c1221 5 1230 5 1305 27 312 89 518 267 650 563 27 59 104 246 173 416 109 270 231 565 335 813 17 41 31 77 31 81 0 4 7 24 15 44 l16 37 31 -18 c18 -10 50 -36 73 -59z m3300 -363 c44 -12 125 -43 180 -71 235 -117 408 -328 477 -582 29 -107 31 -315 5 -422 -42 -166 -129 -320 -252 -441 -94 -93 -148 -130 -259 -178 -132 -57 -229 -77 -371 -77 -142 0 -239 20 -371 77 -113 49 -170 88 -261 181 -122 124 -202 261 -244 417 -29 109 -32 306 -6 420 24 100 99 259 165 345 48 64 156 170 172 170 6 0 172 -295 213 -380 7 -13 0 -29 -25 -62 -58 -75 -81 -142 -86 -245 -3 -74 0 -105 17 -162 28 -91 95 -181 179 -238 87 -59 151 -76 272 -71 85 3 105 8 166 38 344 169 342 642 -3 812 -61 30 -78 33 -173 36 l-105 4 -107 202 -107 201 37 13 c129 45 339 51 487 13z m-10518 -45 c277 -59 510 -239 635 -491 35 -70 73 -173 66 -180 -2 -2 -57 -6 -123 -10 -119 -6 -121 -6 -256 33 -124 36 -140 43 -181 84 -109 105 -282 152 -427 114 l-54 -14 -260 74 c-143 41 -263 77 -266 80 -11 11 145 150 216 192 87 51 201 98 285 116 85 19 280 20 365 2z m-1471 -1063 l211 -37 17 -66 c25 -96 97 -258 150 -339 93 -139 283 -302 441 -377 366 -173 783 -138 1110 94 107 76 201 167 256 249 27 40 55 73 62 73 15 0 431 -72 435 -76 16 -12 -117 -223 -215 -343 -129 -156 -356 -325 -554 -412 -204 -89 -376 -123 -619 -123 -259 0 -466 46 -671 149 -446 224 -752 626 -844 1110 -18 94 -19 135 -2 135 6 0 107 -16 223 -37z m596 -107 c73 -14 200 -37 283 -51 101 -18 162 -34 190 -50 66 -39 150 -58 239 -55 45 1 99 3 121 3 45 1 585 -94 585 -103 0 -3 -21 -29 -46 -58 -148 -169 -384 -283 -620 -299 -243 -16 -510 83 -676 252 -108 109 -201 255 -233 363 -8 28 -9 28 157 -2z"/>
<path d="M13894 10172 c-24 -16 -355 -514 -360 -541 -13 -65 -5 -74 204 -212 108 -71 208 -132 222 -135 17 -4 34 2 53 16 44 35 367 528 367 561 0 42 -29 67 -224 199 -147 98 -186 120 -215 120 -20 0 -41 -4 -47 -8z"/>
<path d="M14565 9281 c-56 -14 -84 -36 -235 -184 -162 -159 -190 -195 -214 -277 -34 -113 -15 -200 74 -355 31 -55 83 -147 114 -205 61 -110 102 -162 149 -186 31 -16 239 -53 301 -54 83 0 162 62 185 145 15 57 84 858 79 927 -8 113 -79 172 -223 183 -172 12 -201 13 -230 6z"/>
<path d="M5510 8139 c-304 -11 -485 -27 -541 -48 -200 -77 -437 -423 -349 -511 80 -80 506 -224 865 -291 104 -20 173 -21 1320 -34 2171 -24 2119 -24 2195 3 126 45 214 122 310 267 68 106 94 192 88 298 -4 67 -11 94 -37 147 -40 80 -75 118 -117 126 -25 5 -47 -2 -105 -35 -208 -113 -454 -153 -1074 -172 -187 -6 -378 -8 -425 -4 -276 20 -678 114 -869 201 -118 55 -622 76 -1261 53z"/>
<path d="M3182 7629 c-18 -5 -35 -16 -39 -24 -3 -8 -16 -15 -29 -15 -13 0 -33 -9 -44 -20 -23 -23 -26 -78 -10 -228 12 -116 29 -152 71 -152 16 0 42 -9 57 -19 18 -13 58 -23 121 -31 134 -15 171 -38 171 -103 0 -55 -26 -104 -72 -134 -32 -22 -49 -47 -98 -150 -33 -69 -60 -126 -60 -128 0 -1 -32 -70 -71 -151 -39 -82 -104 -221 -144 -309 -40 -88 -93 -204 -119 -258 -49 -105 -49 -102 12 -80 6 3 12 3 12 0 0 -2 -36 -79 -81 -171 l-81 -166 -64 0 c-57 0 -64 2 -64 20 0 17 -7 20 -44 20 -44 0 -44 -1 -60 -47 -11 -33 -16 -84 -16 -175 l0 -128 50 0 50 0 0 74 c0 40 3 100 6 133 l7 61 81 8 81 9 137 274 137 274 143 1 c171 2 283 27 398 87 94 49 144 90 243 201 78 88 274 244 402 320 266 159 631 282 975 329 122 17 458 17 580 0 269 -36 592 -133 827 -246 113 -54 145 -66 174 -62 70 9 83 26 214 287 l124 248 -772 5 c-724 4 -779 6 -892 25 -363 63 -834 221 -914 306 l-23 24 -101 -44 c-184 -81 -294 -145 -527 -308 -30 -21 -64 -47 -76 -57 l-21 -19 -22 112 c-45 223 -84 336 -125 363 -44 29 -151 46 -311 50 -93 3 -174 0 -193 -6z"/>
<path d="M7274 7146 c-38 -17 -59 -45 -114 -156 -23 -47 -68 -130 -100 -185 -90 -157 -110 -201 -110 -244 0 -58 34 -93 117 -120 59 -19 260 -91 582 -208 52 -19 105 -42 117 -51 12 -9 84 -91 160 -182 287 -344 344 -407 376 -419 22 -8 834 23 907 35 57 9 82 47 145 214 91 245 110 293 339 875 117 298 125 329 105 381 -10 24 -27 44 -49 56 -32 17 -95 18 -1239 18 -989 -1 -1211 -3 -1236 -14z"/>
<path d="M9985 6918 c-34 -33 -68 -105 -167 -353 -44 -110 -93 -228 -222 -533 -47 -111 -86 -216 -86 -233 0 -41 26 -94 53 -107 68 -35 183 -72 221 -72 53 0 76 18 226 176 157 165 123 154 465 154 269 0 290 1 320 20 65 40 66 50 63 495 -3 374 -4 402 -22 428 -38 57 -42 57 -446 57 l-370 0 -35 -32z"/>
<path d="M11204 5856 c-3 -14 -3 -34 1 -45 6 -21 9 -21 520 -21 l515 0 6 24 c3 14 3 34 -1 45 -6 21 -9 21 -520 21 l-515 0 -6 -24z"/>
<path d="M11204 5693 c-16 -60 -36 -58 521 -58 557 0 537 -2 521 58 l-6 27 -515 0 -515 0 -6 -27z"/>
<path d="M9393 5577 c-31 -29 -37 -41 -40 -88 -4 -45 -1 -60 19 -89 32 -47 63 -62 121 -57 58 5 102 41 119 99 9 31 8 45 -7 84 -22 57 -62 84 -128 84 -40 0 -53 -5 -84 -33z"/>
<path d="M11212 5558 c-7 -7 -12 -24 -12 -38 0 -14 5 -31 12 -38 17 -17 1009 -17 1026 0 7 7 12 24 12 38 0 14 -5 31 -12 38 -17 17 -1009 17 -1026 0z"/>
<path d="M8379 5441 c-27 -28 -29 -34 -29 -111 0 -77 2 -83 29 -111 l29 -29 377 0 377 0 29 29 c27 28 29 34 29 111 0 77 -2 83 -29 111 l-29 29 -377 0 -377 0 -29 -29z"/>
<path d="M11212 5398 c-16 -16 -15 -63 2 -77 9 -8 153 -10 516 -9 460 3 504 4 514 20 7 12 7 26 0 45 l-9 28 -506 3 c-384 2 -508 -1 -517 -10z"/>
</g>
</svg>