<?xml version="1.0" standalone="no"?>
<svg version="1.0" xmlns="http://www.w3.org/2000/svg"
 width="677.000000pt" height="250.000000pt" viewBox="0 0 677.000000 250.000000"
 preserveAspectRatio="xMidYMid meet">

<g transform="translate(0.000000,250.000000) scale(0.100000,-0.100000)"
fill="#000000" stroke="none">
<path d="M63 2480 c-12 -5 -26 -18 -32 -29 -8 -13 -11 -280 -11 -846 0 -882 0
-878 48 -904 12 -6 75 -11 146 -11 l126 0 53 43 c177 144 411 140 577 -9 l37
-34 392 0 391 0 57 47 c32 25 82 58 113 72 49 23 68 26 170 26 109 0 119 -2
182 -32 37 -17 87 -50 111 -72 l44 -41 132 0 c127 0 133 1 156 25 16 15 25 36
26 57 0 18 1 404 1 857 0 745 -2 825 -17 840 -14 15 -137 16 -1348 18 -769 1
-1341 -2 -1354 -7z"/>
<path d="M3200 2477 l-25 -13 -3 -860 -2 -861 26 -27 27 -26 237 0 c230 0 237
1 256 22 35 40 133 96 199 113 133 36 298 -4 399 -99 l39 -36 439 0 440 0 29
29 29 29 0 849 c0 466 -4 853 -8 859 -22 33 -45 34 -1054 34 -781 -1 -1009 -3
-1028 -13z"/>
<path d="M5887 2010 l-449 -5 -19 -24 c-18 -22 -19 -47 -19 -623 0 -436 3
-605 12 -621 22 -42 38 -46 160 -47 l118 0 60 49 c172 138 407 132 570 -15
l37 -34 147 0 c143 0 148 1 171 25 15 14 25 36 25 52 4 327 0 567 -10 602 -6
23 -59 162 -116 309 -115 290 -133 319 -200 331 -22 3 -241 4 -487 1z m380
-210 c43 -26 51 -40 127 -222 70 -167 78 -201 47 -218 -13 -6 -155 -10 -395
-10 l-375 0 -28 24 -28 24 0 187 0 187 28 24 28 24 282 0 c262 0 284 -1 314
-20z"/>
<path d="M563 766 c-236 -76 -335 -362 -195 -566 74 -108 181 -164 312 -163
146 1 267 78 332 211 30 61 33 74 33 162 0 87 -3 101 -32 161 -39 79 -102 140
-181 177 -68 32 -199 41 -269 18z m206 -224 c14 -10 37 -34 49 -53 31 -45 28
-129 -8 -178 -33 -47 -100 -75 -158 -66 -60 9 -127 72 -137 128 -28 148 135
257 254 169z"/>
<path d="M1999 757 c-102 -43 -163 -101 -208 -197 -23 -48 -26 -68 -26 -155 1
-92 3 -105 32 -161 77 -149 247 -235 401 -203 122 25 212 92 265 199 76 150
50 316 -68 433 -71 72 -141 101 -249 104 -78 3 -99 0 -147 -20z m227 -212 c31
-20 62 -70 70 -113 16 -82 -53 -174 -139 -187 -57 -9 -124 19 -157 65 -32 44
-38 124 -15 174 40 85 159 115 241 61z"/>
<path d="M3889 757 c-102 -43 -163 -101 -208 -197 -23 -48 -26 -68 -26 -155 0
-89 3 -106 28 -156 32 -67 119 -152 181 -180 183 -80 394 -11 484 158 82 155
58 326 -63 446 -71 72 -141 101 -249 104 -78 3 -99 0 -147 -20z m230 -214 c14
-10 37 -40 50 -66 19 -39 22 -56 16 -94 -10 -66 -71 -128 -136 -138 -99 -15
-189 60 -189 157 0 87 42 145 120 165 44 12 104 1 139 -24z"/>
<path d="M5915 767 c-128 -42 -218 -139 -251 -269 -45 -173 37 -343 203 -425
68 -34 82 -37 156 -36 153 1 272 75 339 211 31 62 33 74 32 162 0 80 -4 104
-26 150 -37 81 -98 144 -175 182 -56 27 -78 32 -152 35 -52 2 -102 -2 -126
-10z m204 -225 c102 -75 92 -220 -19 -280 -115 -61 -252 34 -237 165 14 123
158 188 256 115z"/>
<path d="M69 628 c-26 -10 -51 -71 -43 -106 4 -15 16 -37 27 -49 18 -21 30
-23 109 -23 85 0 88 1 88 23 1 12 10 47 21 77 11 30 22 62 25 71 5 14 -8 16
-101 15 -58 -1 -115 -4 -126 -8z"/>
<path d="M1050 634 c0 -1 7 -19 17 -40 9 -22 21 -61 28 -89 l12 -50 296 -3
297 -2 5 27 c6 26 34 108 49 143 5 13 -37 15 -349 15 -195 0 -355 -1 -355 -1z"/>
<path d="M2506 632 c-2 -1 5 -19 15 -40 11 -21 25 -61 31 -90 l13 -52 86 0
c71 0 89 3 103 19 36 40 37 121 1 151 -10 8 -55 13 -131 14 -64 0 -117 0 -118
-2z"/>
<path d="M3210 628 c-44 -16 -55 -106 -19 -152 l20 -26 190 0 189 0 5 28 c6
25 34 107 49 142 5 13 -21 15 -204 15 -116 0 -220 -3 -230 -7z"/>
<path d="M4396 632 c-2 -1 5 -19 15 -40 11 -21 25 -61 31 -90 l13 -52 572 0
573 0 0 23 c1 12 10 47 21 77 11 30 22 62 25 70 4 13 -69 15 -621 15 -345 0
-628 -1 -629 -3z"/>
<path d="M6400 627 c0 -4 8 -22 17 -40 9 -18 22 -54 28 -82 l11 -50 124 -3
c113 -2 125 -1 145 18 13 12 25 35 29 51 7 36 -16 96 -39 106 -25 9 -315 9
-315 0z"/>
<path d="M2847 603 c-4 -3 -7 -33 -7 -65 l0 -59 138 3 137 3 2 35 c0 19 -1 47
-4 63 l-5 27 -127 0 c-70 0 -131 -3 -134 -7z"/>
</g>
</svg>
