<svg xmlns="http://www.w3.org/2000/svg" version="1.0" preserveAspectRatio="xMidYMid meet" viewBox="20 67 160 66.16">

<g transform="translate(0.000000,200.000000) scale(0.100000,-0.100000)" fill="#000000" stroke="none">
<path d="M670 1150 c0 -173 -1 -180 -20 -180 -19 0 -20 7 -20 150 l0 150 -215 0 -215 0 0 -250 0 -250 64 0 64 0 12 35 c13 38 58 82 96 91 64 16 145 -33 159 -96 l7 -30 234 0 c216 0 234 1 234 18 0 52 70 112 130 112 60 0 130 -60 130 -112 0 -14 8 -18 34 -18 30 0 35 4 41 30 14 63 95 112 159 96 38 -9 83 -53 96 -91 l12 -35 64 0 64 0 0 280 0 280 -565 0 -565 0 0 -180z m-200 -50 l0 -100 -100 0 -100 0 0 100 0 100 100 0 100 0 0 -100z"/>
<path d="M430 859 c-37 -15 -60 -49 -60 -92 0 -109 156 -135 190 -32 15 44 -7 98 -49 119 -34 18 -46 19 -81 5z"/>
<path d="M1164 861 c-65 -28 -84 -113 -35 -162 60 -60 156 -27 168 57 4 35 1 46 -23 73 -31 33 -76 46 -110 32z"/>
<path d="M1484 851 c-89 -54 -53 -181 51 -181 105 0 132 155 33 189 -41 15 -48 14 -84 -8z"/>
</g>
</svg>