<svg xmlns="http://www.w3.org/2000/svg" width="30" height="30" viewBox="0 0 30 30" fill="none">
    <mask id="mask0_1352_5" style="mask-type:luminance" maskUnits="userSpaceOnUse" x="0" y="0" width="30" height="30">
        <path d="M30 0H0V30H30V0Z" fill="white"/>
    </mask>
    <g mask="url(#mask0_1352_5)">
        <path d="M14.9916 30C12.9325 30 10.9905 29.6066 9.17411 28.8114C7.34933 28.0162 5.75893 26.9448 4.41127 25.5971C3.05525 24.2411 1.98382 22.659 1.19699 20.8259C0.393415 19.0011 0 17.0592 0 15C0 12.9408 0.393415 10.9738 1.18862 9.149C1.98382 7.32422 3.05525 5.73382 4.41127 4.36942C5.7673 3.01339 7.3577 1.94196 9.17411 1.1635C10.9989 0.385045 12.9408 0 14.9916 0C17.0424 0 19.0262 0.385045 20.851 1.1635C22.6842 1.94196 24.2746 3.01339 25.6306 4.36942C26.9866 5.72545 28.0497 7.32422 28.8281 9.149C29.6066 10.9821 30 12.9325 30 15.0084C30 17.0843 29.615 19.0095 28.8365 20.8259C28.058 22.6423 26.9866 24.2243 25.6306 25.5804C24.2746 26.9364 22.6758 28.0162 20.851 28.803C19.0262 29.5982 17.0675 29.9916 14.9916 29.9916M12.9408 21.9727L23.5296 11.3839L21.3449 9.22433L12.9408 17.6283L8.68862 13.3761L6.52902 15.5357L12.9408 21.9643V21.9727Z"
              fill="#6B21A8"/>
    </g>
</svg>
