<svg width="27" height="21" viewBox="0 0 27 21" fill="none" xmlns="http://www.w3.org/2000/svg">
<path d="M0.40483 21V15.2045C0.40483 13.5379 0.71733 11.8049 1.34233 10.0057C1.98627 8.1875 2.85748 6.47348 3.95597 4.86364C5.07339 3.23485 6.32339 1.86174 7.70597 0.744315L12.4787 3.84091C11.3613 5.52651 10.4238 7.28788 9.66619 9.125C8.92756 10.9432 8.56771 12.9508 8.58665 15.1477V21H0.40483ZM14.8082 21V15.2045C14.8082 13.5379 15.1207 11.8049 15.7457 10.0057C16.3897 8.1875 17.2609 6.47348 18.3594 4.86364C19.4768 3.23485 20.7268 1.86174 22.1094 0.744315L26.8821 3.84091C25.7647 5.52651 24.8272 7.28788 24.0696 9.125C23.331 10.9432 22.9711 12.9508 22.9901 15.1477V21H14.8082Z" fill="#8447AD"/>
</svg>
